{
	"asset":{
		"version":"2.0",
		"generator":"Created using the official Cinema 4D glTF Exporter 1.000x284978"
	},
	"scenes":[{
		"nodes":[0]
	}],
	"nodes":[{
		"name":"fancy_picture_frame_01",
		"translation":[0.0,
		13.793822288513184,
		8.446280618983678e-16],
		"rotation":[0.7071067690849304,
		0.0,
		0.0,
		-0.7071067690849304],
		"scale":[100.0,
		100.0,
		100.0],
		"mesh":0
	}],
	"meshes":[{
		"name":"fancy_picture_frame_01",
		"primitives":[{
			"attributes":{
				"POSITION":1,
				"NORMAL":2,
				"TEXCOORD_0":3
			},
			"indices":0
		}]
	}],
	"accessors":[{
		"bufferView":0,
		"type":"SCALAR",
		"componentType":5123,
		"count":2808,
		"byteOffset":0,
		"min":[0],
		"max":[628]
	},
	{
		"bufferView":1,
		"type":"VEC3",
		"componentType":5126,
		"count":629,
		"byteOffset":0,
		"min":[-0.17854855954647065,
		-0.012963882647454739,
		-0.1374211460351944],
		"max":[0.17854855954647065,
		-0.0011245606001466513,
		0.1374211460351944]
	},
	{
		"bufferView":1,
		"type":"VEC3",
		"componentType":5126,
		"count":629,
		"byteOffset":12,
		"min":[-1.0,
		-1.0,
		-1.0],
		"max":[1.0,
		1.0,
		1.0]
	},
	{
		"bufferView":1,
		"type":"VEC2",
		"componentType":5126,
		"count":629,
		"byteOffset":24,
		"min":[0.005340241361409426,
		0.003951430320739746],
		"max":[0.9964888691902161,
		0.9973735809326172]
	}],
	"bufferViews":[{
		"buffer":0,
		"byteOffset":0,
		"byteLength":5616,
		"target":34963
	},
	{
		"buffer":0,
		"byteOffset":5616,
		"byteLength":20128,
		"target":34962,
		"byteStride":32
	}],
	"buffers":[{
		"uri":"data:application/octet-stream;base64,",
		"byteLength":25744
	}]
}